<svg version="1.2" xmlns="http://www.w3.org/2000/svg" viewBox="0 0 5703 1871" width="5703" height="1871"><style>.a{opacity:.7;fill:#eee}</style><path fill-rule="evenodd" class="a" d="m3572.3 1533.4c6.4 0 12.2 2.6 16.4 6.8v0.1c4.2 4.2 6.8 10 6.8 16.4v290.3c0 6.4-2.6 12.2-6.8 16.4-4.2 4.2-10 6.8-16.4 6.8h-1823.2c-6.4 0-12.2-2.6-16.4-6.8-4.2-4.3-6.9-10.1-6.9-16.4v-290.3c0-6.4 2.7-12.2 6.9-16.5 4.2-4.2 10-6.8 16.4-6.8zm10.9 12.3c-2.8-2.8-6.7-4.5-10.9-4.5h-1823.3c-4.2 0-8.1 1.7-10.9 4.5-2.8 2.8-4.6 6.7-4.6 11v290.3c0 4.2 1.8 8.1 4.6 10.9 2.8 2.8 6.7 4.6 10.9 4.6h1823.3c4.2 0 8.1-1.8 10.9-4.6 2.8-2.8 4.5-6.7 4.5-10.9v-290.3c0-4.3-1.7-8.2-4.5-11zm1230.5-395.5h865.7c6.4 0 12.2 2.6 16.4 6.8 4.2 4.2 6.9 10 6.9 16.4v290.3c0 6.4-2.7 12.2-6.9 16.4-4.2 4.3-10 6.9-16.4 6.9h-865.7c-6.4 0-12.2-2.6-16.4-6.9-4.2-4.2-6.8-10-6.8-16.4v-290.3c0-6.3 2.6-12.2 6.8-16.4 4.2-4.2 10-6.8 16.4-6.8zm865.7 7.7h-865.7c-4.3 0-8.1 1.8-10.9 4.6h-0.1c-2.8 2.8-4.5 6.7-4.5 10.9v290.3c0 4.3 1.7 8.2 4.5 11h0.1c2.8 2.8 6.6 4.5 10.9 4.5h865.7c4.3 0 8.2-1.7 11-4.5 2.8-2.8 4.5-6.7 4.5-11v-290.3c0-4.2-1.7-8.1-4.5-10.9-2.8-2.8-6.7-4.6-11-4.6zm-5655.5-1157.4h290.3c6.4 0 12.2 2.6 16.5 6.8 4.2 4.2 6.8 10 6.8 16.4v290.4c0 6.3-2.6 12.1-6.8 16.4h-0.1c-4.2 4.2-10 6.8-16.4 6.8h-290.3c-6.4 0-12.2-2.6-16.4-6.8-4.2-4.2-6.8-10-6.8-16.4v-290.4c0-6.3 2.6-12.1 6.8-16.4 4.2-4.2 10.1-6.8 16.4-6.8zm290.3 7.8h-290.3c-4.2 0-8.1 1.7-10.9 4.5-2.8 2.8-4.6 6.7-4.6 10.9v290.4c0 4.2 1.8 8.1 4.6 10.9 2.8 2.8 6.7 4.5 10.9 4.5h290.3c4.3 0 8.2-1.7 11-4.5 2.8-2.8 4.5-6.7 4.5-10.9v-290.4c0-4.2-1.7-8.1-4.5-10.9-2.8-2.8-6.7-4.5-11-4.5zm92.9-7.8h290.4c6.4 0 12.2 2.6 16.4 6.8 4.2 4.2 6.8 10 6.8 16.4v290.4c0 6.3-2.6 12.1-6.8 16.4-4.2 4.2-10 6.8-16.4 6.8h-290.4c-6.3 0-12.2-2.6-16.4-6.8-4.2-4.2-6.8-10-6.8-16.4v-290.4c0-6.3 2.6-12.1 6.8-16.4h0.1c4.2-4.2 10-6.8 16.3-6.8zm290.4 7.8h-290.4c-4.2 0-8.1 1.7-10.9 4.5-2.8 2.8-4.5 6.7-4.5 10.9v290.4c0 4.2 1.7 8.1 4.5 10.9 2.8 2.8 6.7 4.5 10.9 4.5h290.4c4.2 0 8.1-1.7 10.9-4.5 2.8-2.8 4.6-6.7 4.6-10.9v-290.4c0-4.2-1.8-8.1-4.6-10.9-2.8-2.8-6.7-4.5-10.9-4.5zm92.9-7.8h290.3c6.4 0 12.2 2.6 16.4 6.8 4.2 4.2 6.8 10 6.8 16.4v290.4c0 6.3-2.6 12.1-6.8 16.4-4.2 4.2-10 6.8-16.4 6.8h-290.3c-6.4 0-12.2-2.6-16.4-6.8-4.2-4.2-6.8-10-6.8-16.4v-290.4c0-6.3 2.6-12.1 6.8-16.4 4.2-4.2 10-6.8 16.4-6.8zm290.3 7.8h-290.3c-4.3 0-8.2 1.7-11 4.5-2.8 2.8-4.5 6.7-4.5 10.9v290.4c0 4.2 1.7 8.1 4.5 10.9 2.8 2.8 6.7 4.5 11 4.5h290.3c4.3 0 8.1-1.7 10.9-4.5 2.8-2.8 4.6-6.7 4.6-10.9v-290.4c0-4.2-1.8-8.1-4.6-10.9-2.8-2.8-6.6-4.5-10.9-4.5zm92.9-7.8h290.3c6.4 0 12.2 2.6 16.4 6.8 4.2 4.2 6.9 10 6.9 16.4v290.4c0 6.3-2.7 12.1-6.9 16.4-4.2 4.2-10 6.8-16.4 6.8h-290.3c-6.4 0-12.2-2.6-16.4-6.8-4.2-4.2-6.8-10-6.8-16.4v-290.4c0-6.3 2.6-12.1 6.8-16.4 4.2-4.2 10-6.8 16.4-6.8zm290.3 7.8h-290.3c-4.3 0-8.1 1.7-10.9 4.5-2.8 2.8-4.6 6.7-4.6 10.9v290.4c0 4.2 1.8 8.1 4.6 10.9 2.8 2.8 6.6 4.5 10.9 4.5h290.3c4.3 0 8.2-1.7 11-4.5 2.8-2.8 4.5-6.7 4.5-10.9v-290.4c0-4.2-1.7-8.1-4.5-10.9-2.8-2.8-6.7-4.5-11-4.5zm92.9-7.8h290.4c6.3 0 12.2 2.6 16.4 6.8 4.2 4.2 6.8 10 6.8 16.4v290.4c0 6.3-2.6 12.1-6.8 16.4h-0.1c-4.2 4.2-10 6.8-16.3 6.8h-290.4c-6.4 0-12.2-2.6-16.4-6.8-4.2-4.2-6.8-10-6.8-16.4v-290.4c0-6.3 2.6-12.1 6.8-16.4 4.3-4.2 10.1-6.8 16.4-6.8zm290.4 7.8h-290.4c-4.2 0-8.1 1.7-10.9 4.5-2.8 2.8-4.6 6.7-4.6 10.9v290.4c0 4.2 1.8 8.1 4.6 10.9 2.8 2.8 6.7 4.5 10.9 4.5h290.4c4.2 0 8.1-1.7 10.9-4.5 2.8-2.8 4.5-6.7 4.5-10.9v-290.4c0-4.2-1.7-8.1-4.5-10.9-2.8-2.8-6.7-4.5-10.9-4.5zm92.9-7.8h290.3c6.4 0 12.2 2.6 16.4 6.8 4.2 4.2 6.8 10 6.8 16.4v290.4c0 6.3-2.6 12.1-6.8 16.4-4.2 4.2-10 6.8-16.4 6.8h-290.3c-6.4 0-12.2-2.6-16.4-6.8-4.2-4.2-6.9-10-6.9-16.4v-290.4c0-6.3 2.7-12.1 6.9-16.4 4.2-4.2 10-6.8 16.4-6.8zm290.3 7.8h-290.3c-4.3 0-8.2 1.7-11 4.5-2.8 2.8-4.5 6.7-4.5 10.9v290.4c0 4.2 1.7 8.1 4.5 10.9 2.8 2.8 6.7 4.5 11 4.5h290.3c4.2 0 8.1-1.7 10.9-4.5 2.8-2.8 4.6-6.7 4.6-10.9v-290.4c0-4.2-1.8-8.1-4.6-10.9-2.8-2.8-6.7-4.5-10.9-4.5zm92.9-7.8h290.3c6.4 0 12.2 2.6 16.4 6.8 4.2 4.2 6.8 10 6.8 16.4v290.4c0 6.3-2.6 12.1-6.8 16.4-4.2 4.2-10 6.8-16.4 6.8h-290.3c-6.4 0-12.2-2.6-16.4-6.8-4.2-4.2-6.8-10-6.8-16.4v-290.4c0-6.3 2.6-12.1 6.8-16.4 4.2-4.2 10-6.8 16.4-6.8zm290.3 7.8h-290.3c-4.3 0-8.2 1.7-10.9 4.5h-0.1c-2.8 2.8-4.5 6.7-4.5 10.9v290.4c0 4.2 1.7 8.1 4.6 10.9 2.8 2.8 6.6 4.5 10.9 4.5h290.3c4.3 0 8.1-1.7 11-4.5 2.7-2.8 4.5-6.7 4.5-10.9v-290.4c0-4.2-1.8-8.1-4.6-10.9-2.8-2.8-6.6-4.5-10.9-4.5zm92.9-7.8h290.3c6.4 0 12.2 2.6 16.4 6.8 4.3 4.2 6.9 10 6.9 16.4v290.4c0 6.3-2.6 12.1-6.9 16.4-4.2 4.2-10 6.8-16.4 6.8h-290.3c-6.4 0-12.2-2.6-16.4-6.8-4.2-4.2-6.8-10-6.8-16.4v-290.4c0-6.3 2.6-12.1 6.8-16.4 4.2-4.2 10-6.8 16.4-6.8zm290.3 7.8h-290.3c-4.2 0-8.1 1.7-10.9 4.5-2.8 2.8-4.6 6.7-4.6 10.9v290.4c0 4.2 1.8 8.1 4.6 10.9 2.8 2.8 6.7 4.5 10.9 4.5h290.3c4.3 0 8.2-1.7 11-4.5 2.8-2.8 4.5-6.7 4.5-10.9v-290.4c0-4.2-1.7-8.1-4.5-10.9-2.8-2.8-6.7-4.5-11-4.5zm92.9-7.8h290.4c6.4 0 12.2 2.6 16.4 6.8 4.2 4.2 6.8 10 6.8 16.4v290.4c0 6.3-2.6 12.1-6.8 16.4-4.2 4.2-10 6.8-16.4 6.8h-290.4c-6.3 0-12.2-2.6-16.4-6.8-4.2-4.2-6.8-10-6.8-16.4v-290.4c0-6.3 2.6-12.1 6.8-16.4h0.1c4.2-4.2 10-6.8 16.3-6.8zm290.4 7.8h-290.4c-4.2 0-8.1 1.7-10.9 4.5-2.8 2.8-4.5 6.7-4.5 10.9v290.4c0 4.2 1.7 8.1 4.5 10.9 2.8 2.8 6.7 4.5 10.9 4.5h290.4c4.2 0 8.1-1.7 10.9-4.5 2.8-2.8 4.6-6.7 4.6-10.9v-290.4c0-4.2-1.8-8.1-4.6-10.9-2.8-2.8-6.7-4.5-10.9-4.5zm92.9-7.8h290.3c6.4 0 12.2 2.6 16.4 6.8 4.2 4.2 6.8 10 6.8 16.4v290.4c0 6.3-2.6 12.1-6.8 16.4-4.2 4.2-10 6.8-16.4 6.8h-290.3c-6.4 0-12.2-2.6-16.4-6.8-4.2-4.2-6.9-10-6.9-16.4v-290.4c0-6.3 2.7-12.1 6.9-16.4 4.2-4.2 10-6.8 16.4-6.8zm290.3 7.8h-290.3c-4.3 0-8.2 1.7-11 4.5-2.8 2.8-4.5 6.7-4.5 10.9v290.4c0 4.2 1.7 8.1 4.5 10.9 2.8 2.8 6.7 4.5 11 4.5h290.3c4.3 0 8.1-1.7 10.9-4.5 2.8-2.8 4.6-6.7 4.6-10.9v-290.4c0-4.2-1.8-8.1-4.6-10.9-2.8-2.8-6.7-4.5-10.9-4.5zm92.9-7.8h290.3c6.4 0 12.2 2.6 16.4 6.8 4.2 4.2 6.8 10 6.8 16.4v290.4c0 6.3-2.6 12.1-6.8 16.4-4.2 4.2-10 6.8-16.4 6.8h-290.3c-6.4 0-12.2-2.6-16.4-6.8-4.2-4.2-6.8-10-6.8-16.4v-290.4c0-6.3 2.6-12.1 6.8-16.4 4.2-4.2 10-6.8 16.4-6.8zm290.3 7.8h-290.3c-4.3 0-8.1 1.7-10.9 4.5-2.8 2.8-4.6 6.7-4.6 10.9v290.4c0 4.2 1.8 8.1 4.6 10.9 2.8 2.8 6.6 4.5 10.9 4.5h290.3c4.3 0 8.2-1.7 11-4.5 2.8-2.8 4.5-6.7 4.5-10.9v-290.4c0-4.2-1.7-8.1-4.5-10.9-2.8-2.8-6.7-4.5-11-4.5zm92.9-7.8h290.4c6.3 0 12.1 2.6 16.4 6.8 4.2 4.2 6.8 10 6.8 16.4v290.4c0 6.3-2.6 12.1-6.8 16.4h-0.1c-4.2 4.2-10 6.8-16.3 6.8h-290.4c-6.4 0-12.2-2.6-16.4-6.8-4.2-4.2-6.8-10-6.8-16.4v-290.4c0-6.3 2.6-12.1 6.8-16.4 4.3-4.2 10.1-6.8 16.4-6.8zm290.4 7.8h-290.4c-4.2 0-8.1 1.7-10.9 4.5-2.8 2.8-4.6 6.7-4.6 10.9v290.4c0 4.2 1.8 8.1 4.6 10.9 2.8 2.8 6.7 4.5 10.9 4.5h290.4c4.2 0 8.1-1.7 10.9-4.5 2.8-2.8 4.5-6.7 4.5-10.9v-290.4c0-4.2-1.7-8.1-4.5-10.9-2.8-2.8-6.7-4.5-10.9-4.5zm92.9-7.8h290.3c6.4 0 12.2 2.6 16.4 6.8 4.2 4.2 6.8 10 6.8 16.4v290.4c0 6.3-2.6 12.1-6.8 16.4-4.2 4.2-10 6.8-16.4 6.8h-290.3c-6.4 0-12.2-2.6-16.4-6.8-4.3-4.2-6.9-10-6.9-16.4v-290.4c0-6.3 2.6-12.1 6.9-16.4 4.2-4.2 10-6.8 16.4-6.8zm290.3 7.8h-290.3c-4.3 0-8.2 1.7-11 4.5-2.8 2.8-4.5 6.7-4.5 10.9v290.4c0 4.2 1.7 8.1 4.5 10.9 2.8 2.8 6.7 4.5 11 4.5h290.3c4.2 0 8.1-1.7 10.9-4.5 2.8-2.8 4.6-6.7 4.6-10.9v-290.4c0-4.2-1.8-8.1-4.6-10.9-2.8-2.8-6.7-4.5-10.9-4.5zm594.9-7.8h171.5c6.4 0 12.2 2.6 16.4 6.8 4.2 4.2 6.9 10 6.9 16.4v290.4c0 6.3-2.7 12.1-6.9 16.4-4.2 4.2-10 6.8-16.4 6.8h-171.5-118.8-92.9-145.1-145.2c-6.4 0-12.2-2.6-16.4-6.8-4.2-4.2-6.8-10-6.8-16.4v-290.4c0-6.3 2.6-12.1 6.8-16.4 4.2-4.2 10-6.8 16.4-6.8h145.2 145.1 92.9zm171.5 7.8h-673.5c-4.3 0-8.2 1.7-11 4.5-2.8 2.8-4.5 6.7-4.5 10.9v290.4c0 4.2 1.7 8.1 4.5 10.9 2.9 2.8 6.7 4.5 11 4.5h145.2 145.1 92.9 118.8 171.5c4.3 0 8.2-1.7 11-4.5 2.8-2.8 4.5-6.7 4.5-10.9v-290.4c0-4.2-1.7-8.1-4.5-10.9-2.8-2.8-6.7-4.5-11-4.5zm-5080.6 375.4h290.3c6.4 0 12.2 2.7 16.4 6.9 4.2 4.2 6.8 10 6.8 16.4v290.3c0 6.4-2.6 12.2-6.8 16.4-4.2 4.2-10 6.8-16.4 6.8h-290.3c-6.4 0-12.2-2.6-16.4-6.8-4.2-4.2-6.9-10-6.9-16.4v-290.3c0-6.4 2.6-12.2 6.9-16.4 4.2-4.3 10-6.9 16.4-6.9zm290.3 7.8h-290.3c-4.3 0-8.2 1.7-11 4.5-2.8 2.8-4.5 6.7-4.5 11v290.3c0 4.2 1.7 8.1 4.5 10.9 2.8 2.8 6.7 4.6 11 4.6h290.3c4.2 0 8.1-1.8 10.9-4.6 2.8-2.8 4.6-6.7 4.6-10.9v-290.3c0-4.3-1.8-8.2-4.6-11-2.8-2.8-6.7-4.5-10.9-4.5zm92.9-7.8h290.3c6.4 0 12.2 2.7 16.4 6.9 4.2 4.2 6.8 10 6.8 16.4v290.3c0 6.4-2.6 12.2-6.8 16.4-4.2 4.2-10 6.8-16.4 6.8h-290.3c-6.4 0-12.2-2.6-16.4-6.8-4.2-4.2-6.8-10-6.8-16.4v-290.3c0-6.4 2.6-12.2 6.8-16.4 4.2-4.3 10-6.9 16.4-6.9zm290.3 7.8h-290.3c-4.3 0-8.1 1.7-10.9 4.5h-0.1c-2.8 2.8-4.5 6.7-4.5 11v290.3c0 4.2 1.8 8.1 4.6 10.9 2.8 2.8 6.6 4.6 10.9 4.6h290.3c4.3 0 8.2-1.8 11-4.6 2.8-2.8 4.5-6.7 4.5-10.9v-290.3c0-4.3-1.7-8.2-4.5-11-2.9-2.8-6.7-4.5-11-4.5zm92.9-7.8h290.3c6.4 0 12.2 2.7 16.4 6.9 4.2 4.2 6.9 10 6.9 16.4v290.3c0 6.4-2.7 12.2-6.9 16.4-4.2 4.2-10 6.8-16.4 6.8h-290.3c-6.4 0-12.2-2.6-16.4-6.8-4.2-4.2-6.8-10-6.8-16.4v-290.3c0-6.4 2.6-12.2 6.8-16.4 4.2-4.3 10.1-6.9 16.4-6.9zm290.3 7.8h-290.3c-4.2 0-8.1 1.7-10.9 4.5-2.8 2.8-4.6 6.7-4.6 11v290.3c0 4.2 1.8 8.1 4.6 10.9 2.8 2.8 6.7 4.6 10.9 4.6h290.3c4.3 0 8.2-1.8 11-4.6 2.8-2.8 4.5-6.7 4.5-10.9v-290.3c0-4.3-1.7-8.2-4.5-11-2.8-2.8-6.7-4.5-11-4.5zm92.9-7.8h290.4c6.4 0 12.2 2.7 16.4 6.9 4.2 4.2 6.8 10 6.8 16.4v290.3c0 6.4-2.6 12.2-6.8 16.4-4.2 4.2-10.1 6.8-16.4 6.8h-290.4c-6.3 0-12.2-2.6-16.4-6.8-4.2-4.2-6.8-10-6.8-16.4v-290.3c0-6.4 2.6-12.2 6.8-16.4h0.1c4.2-4.3 10-6.9 16.3-6.9zm290.4 7.8h-290.4c-4.2 0-8.1 1.7-10.9 4.5-2.8 2.8-4.5 6.7-4.5 11v290.3c0 4.2 1.7 8.1 4.5 10.9 2.8 2.8 6.7 4.6 10.9 4.6h290.4c4.2 0 8.1-1.8 10.9-4.6 2.8-2.8 4.6-6.7 4.6-10.9v-290.3c0-4.3-1.8-8.2-4.6-11-2.8-2.8-6.7-4.5-10.9-4.5zm92.9-7.8h290.3c6.4 0 12.2 2.7 16.4 6.9 4.2 4.2 6.8 10 6.8 16.4v290.3c0 6.4-2.6 12.2-6.8 16.4-4.2 4.2-10 6.8-16.4 6.8h-290.3c-6.4 0-12.2-2.6-16.4-6.8-4.2-4.2-6.8-10-6.8-16.4v-290.3c0-6.4 2.6-12.2 6.8-16.4 4.2-4.3 10-6.9 16.4-6.9zm290.3 7.8h-290.3c-4.3 0-8.2 1.7-11 4.5-2.8 2.8-4.5 6.7-4.5 11v290.3c0 4.2 1.7 8.1 4.5 10.9 2.8 2.8 6.7 4.6 11 4.6h290.3c4.3 0 8.1-1.8 10.9-4.6 2.8-2.8 4.6-6.7 4.6-10.9v-290.3c0-4.3-1.8-8.2-4.6-11-2.8-2.8-6.6-4.5-10.9-4.5zm92.9-7.8h290.3c6.4 0 12.2 2.7 16.4 6.9 4.2 4.2 6.9 10 6.9 16.4v290.3c0 6.4-2.7 12.2-6.9 16.4-4.2 4.2-10 6.8-16.4 6.8h-290.3c-6.4 0-12.2-2.6-16.4-6.8-4.2-4.2-6.8-10-6.8-16.4v-290.3c0-6.4 2.6-12.2 6.8-16.4 4.2-4.3 10-6.9 16.4-6.9zm290.3 7.8h-290.3c-4.3 0-8.1 1.7-10.9 4.5-2.8 2.8-4.6 6.7-4.6 11v290.3c0 4.2 1.8 8.1 4.6 10.9 2.8 2.8 6.7 4.6 10.9 4.6h290.3c4.3 0 8.2-1.8 11-4.6 2.8-2.8 4.5-6.7 4.5-10.9v-290.3c0-4.3-1.7-8.2-4.5-11-2.9-2.8-6.7-4.5-11-4.5zm92.9-7.8h290.4c6.3 0 12.2 2.7 16.4 6.9 4.2 4.2 6.8 10 6.8 16.4v290.3c0 6.4-2.6 12.2-6.8 16.4h-0.1c-4.2 4.2-10 6.8-16.3 6.8h-290.4c-6.4 0-12.2-2.6-16.4-6.8-4.2-4.2-6.8-10-6.8-16.4v-290.3c0-6.4 2.6-12.2 6.8-16.4 4.3-4.3 10.1-6.9 16.4-6.9zm290.4 7.8h-290.4c-4.2 0-8.1 1.7-10.9 4.5-2.8 2.8-4.5 6.7-4.5 11v290.3c0 4.2 1.7 8.1 4.5 10.9 2.8 2.8 6.7 4.6 10.9 4.6h290.4c4.2 0 8.1-1.8 10.9-4.6 2.8-2.8 4.5-6.7 4.5-10.9v-290.3c0-4.3-1.7-8.2-4.5-11-2.8-2.8-6.7-4.5-10.9-4.5zm92.9-7.8h290.3c6.4 0 12.2 2.7 16.4 6.9 4.2 4.2 6.8 10 6.8 16.4v290.3c0 6.4-2.6 12.2-6.8 16.4-4.2 4.2-10 6.8-16.4 6.8h-290.3c-6.4 0-12.2-2.6-16.4-6.8-4.3-4.2-6.9-10-6.9-16.4v-290.3c0-6.4 2.6-12.2 6.9-16.4 4.2-4.3 10-6.9 16.4-6.9zm290.3 7.8h-290.3c-4.3 0-8.2 1.7-11 4.5-2.8 2.8-4.5 6.7-4.5 11v290.3c0 4.2 1.7 8.1 4.5 10.9 2.8 2.8 6.7 4.6 11 4.6h290.3c4.2 0 8.1-1.8 10.9-4.6 2.8-2.8 4.6-6.7 4.6-10.9v-290.3c0-4.3-1.8-8.2-4.6-11-2.8-2.8-6.7-4.5-10.9-4.5zm92.9-7.8h290.3c6.4 0 12.2 2.7 16.4 6.9 4.2 4.2 6.8 10 6.8 16.4v290.3c0 6.4-2.6 12.2-6.8 16.4-4.2 4.2-10 6.8-16.4 6.8h-290.3c-6.4 0-12.2-2.6-16.4-6.8-4.2-4.2-6.8-10-6.8-16.4v-290.3c0-6.4 2.6-12.2 6.8-16.4 4.2-4.3 10-6.9 16.4-6.9zm290.3 7.8h-290.3c-4.3 0-8.1 1.7-10.9 4.5h-0.1c-2.8 2.8-4.5 6.7-4.5 11v290.3c0 4.2 1.8 8.1 4.6 10.9 2.8 2.8 6.6 4.6 10.9 4.6h290.3c4.3 0 8.1-1.8 11-4.6 2.8-2.8 4.5-6.7 4.5-10.9v-290.3c0-4.3-1.7-8.2-4.6-11-2.8-2.8-6.6-4.5-10.9-4.5zm92.9-7.8h290.3c6.4 0 12.2 2.7 16.4 6.9 4.2 4.2 6.9 10 6.9 16.4v290.3c0 6.4-2.7 12.2-6.9 16.4-4.2 4.2-10 6.8-16.4 6.8h-290.3c-6.4 0-12.2-2.6-16.4-6.8-4.2-4.2-6.8-10-6.8-16.4v-290.3c0-6.4 2.6-12.2 6.8-16.4 4.2-4.3 10-6.9 16.4-6.9zm290.3 7.8h-290.3c-4.3 0-8.1 1.7-10.9 4.5-2.8 2.8-4.6 6.7-4.6 11v290.3c0 4.2 1.8 8.1 4.6 10.9 2.8 2.8 6.7 4.6 10.9 4.6h290.3c4.3 0 8.2-1.8 11-4.6 2.8-2.8 4.5-6.7 4.5-10.9v-290.3c0-4.3-1.7-8.2-4.5-11-2.8-2.8-6.7-4.5-11-4.5zm92.9-7.8h290.4c6.4 0 12.2 2.7 16.4 6.9 4.2 4.2 6.8 10 6.8 16.4v290.3c0 6.4-2.6 12.2-6.8 16.4-4.3 4.2-10.1 6.8-16.4 6.8h-290.4c-6.3 0-12.2-2.6-16.4-6.8-4.2-4.2-6.8-10-6.8-16.4v-290.3c0-6.4 2.6-12.2 6.8-16.4h0.1c4.2-4.3 10-6.9 16.3-6.9zm290.4 7.8h-290.4c-4.2 0-8.1 1.7-10.9 4.5-2.8 2.8-4.5 6.7-4.5 11v290.3c0 4.2 1.7 8.1 4.5 10.9 2.8 2.8 6.7 4.6 10.9 4.6h290.4c4.2 0 8.1-1.8 10.9-4.6 2.8-2.8 4.6-6.7 4.6-10.9v-290.3c0-4.3-1.8-8.2-4.6-11-2.8-2.8-6.7-4.5-10.9-4.5zm92.9-7.8h290.3c6.4 0 12.2 2.7 16.4 6.9 4.2 4.2 6.8 10 6.8 16.4v290.3c0 6.4-2.6 12.2-6.8 16.4-4.2 4.2-10 6.8-16.4 6.8h-290.3c-6.4 0-12.2-2.6-16.4-6.8-4.2-4.2-6.9-10-6.9-16.4v-290.3c0-6.4 2.7-12.2 6.9-16.4 4.2-4.3 10-6.9 16.4-6.9zm290.3 7.8h-290.3c-4.3 0-8.2 1.7-11 4.5-2.8 2.8-4.5 6.7-4.5 11v290.3c0 4.2 1.7 8.1 4.5 10.9 2.8 2.8 6.7 4.6 11 4.6h290.3c4.3 0 8.1-1.8 10.9-4.6 2.8-2.8 4.6-6.7 4.6-10.9v-290.3c0-4.3-1.8-8.2-4.6-11-2.8-2.8-6.6-4.5-10.9-4.5zm76.5-0.9c4.2-4.3 10-6.9 16.4-6.9h481.9c6.4 0 12.2 2.7 16.4 6.9 4.2 4.2 6.9 10 6.9 16.4v290.3c0 6.4-2.7 12.2-6.9 16.4-4.2 4.2-10 6.8-16.4 6.8h-481.9c-6.4 0-12.2-2.6-16.4-6.8-4.2-4.2-6.8-10-6.8-16.4v-290.3c0-6.4 2.6-12.2 6.8-16.4zm16.4 0.9c-4.3 0-8.1 1.7-10.9 4.5h-0.1c-2.8 2.8-4.5 6.7-4.5 11v290.3c0 4.2 1.8 8.1 4.6 10.9 2.8 2.8 6.6 4.6 10.9 4.6h481.9c4.3 0 8.2-1.8 11-4.6 2.8-2.8 4.5-6.7 4.5-10.9v-290.3c0-4.3-1.7-8.2-4.5-11-2.8-2.8-6.7-4.5-11-4.5zm-5189.9 382.3c4.2-4.2 10-6.8 16.4-6.8h563.2c6.4 0 12.2 2.6 16.4 6.8 4.2 4.2 6.8 10 6.8 16.4v290.3c0 6.4-2.6 12.2-6.8 16.4-4.2 4.2-10 6.8-16.4 6.8h-563.2c-6.4 0-12.2-2.6-16.4-6.8-4.2-4.2-6.9-10-6.9-16.4v-290.3c0-6.4 2.7-12.2 6.9-16.4zm16.4 0.9c-4.3 0-8.2 1.7-11 4.5v0.1c-2.8 2.8-4.5 6.6-4.5 10.9v290.3c0 4.3 1.7 8.1 4.5 11 2.8 2.8 6.7 4.5 11 4.5h563.2c4.3 0 8.1-1.7 10.9-4.5 2.8-2.8 4.6-6.7 4.6-11v-290.3c0-4.3-1.8-8.1-4.6-10.9-2.8-2.8-6.6-4.6-10.9-4.6zm656.1-7.7h290.4c6.4 0 12.2 2.6 16.4 6.8 4.2 4.2 6.8 10 6.8 16.4v290.3c0 6.4-2.6 12.2-6.8 16.4-4.3 4.2-10.1 6.8-16.4 6.8h-290.4c-6.4 0-12.2-2.6-16.4-6.8-4.2-4.2-6.8-10-6.8-16.4v-290.3c0-6.4 2.6-12.2 6.8-16.4 4.3-4.2 10.1-6.8 16.4-6.8zm290.4 7.7h-290.4c-4.2 0-8.1 1.7-10.9 4.5v0.1c-2.8 2.8-4.5 6.6-4.5 10.9v290.3c0 4.3 1.7 8.1 4.5 11 2.8 2.8 6.7 4.5 10.9 4.5h290.4c4.2 0 8.1-1.7 10.9-4.5 2.8-2.8 4.5-6.7 4.5-11v-290.3c0-4.3-1.7-8.1-4.5-10.9-2.8-2.8-6.7-4.6-10.9-4.6zm92.9-7.7h290.3c6.4 0 12.2 2.6 16.4 6.8 4.2 4.2 6.8 10 6.8 16.4v290.3c0 6.4-2.6 12.2-6.8 16.4-4.2 4.2-10 6.8-16.4 6.8h-290.3c-6.4 0-12.2-2.6-16.4-6.8-4.2-4.2-6.9-10-6.9-16.4v-290.3c0-6.4 2.7-12.2 6.9-16.4 4.2-4.2 10-6.8 16.4-6.8zm290.3 7.7h-290.3c-4.3 0-8.2 1.7-11 4.5v0.1c-2.8 2.8-4.5 6.6-4.5 10.9v290.3c0 4.3 1.7 8.1 4.5 11 2.8 2.8 6.7 4.5 11 4.5h290.3c4.2 0 8.1-1.7 10.9-4.5 2.8-2.8 4.6-6.7 4.6-11v-290.3c0-4.3-1.8-8.1-4.6-10.9-2.8-2.8-6.7-4.6-10.9-4.6zm92.9-7.7h290.3c6.4 0 12.2 2.6 16.4 6.8 4.2 4.2 6.8 10 6.8 16.4v290.3c0 6.4-2.6 12.2-6.8 16.4-4.2 4.2-10 6.8-16.4 6.8h-290.3c-6.4 0-12.2-2.6-16.4-6.8-4.2-4.2-6.8-10-6.8-16.4v-290.3c0-6.4 2.6-12.2 6.8-16.4 4.2-4.2 10-6.8 16.4-6.8zm290.3 7.7h-290.3c-4.3 0-8.1 1.7-10.9 4.5l-0.1 0.1c-2.8 2.8-4.5 6.6-4.5 10.9v290.3c0 4.3 1.8 8.1 4.6 11 2.8 2.8 6.6 4.5 10.9 4.5h290.3c4.3 0 8.2-1.7 11-4.5 2.8-2.8 4.5-6.7 4.5-11v-290.3c0-4.3-1.7-8.1-4.5-10.9-2.9-2.8-6.7-4.6-11-4.6zm92.9-7.7h290.3c6.4 0 12.2 2.6 16.4 6.8 4.3 4.2 6.9 10 6.9 16.4v290.3c0 6.4-2.6 12.2-6.9 16.4-4.2 4.2-10 6.8-16.4 6.8h-290.3c-6.4 0-12.2-2.6-16.4-6.8-4.2-4.2-6.8-10-6.8-16.4v-290.3c0-6.4 2.6-12.2 6.8-16.4 4.2-4.2 10.1-6.8 16.4-6.8zm290.3 7.7h-290.3c-4.2 0-8.1 1.7-10.9 4.5v0.1c-2.8 2.8-4.6 6.6-4.6 10.9v290.3c0 4.3 1.8 8.1 4.6 11 2.8 2.8 6.7 4.5 10.9 4.5h290.3c4.3 0 8.2-1.7 11-4.5 2.8-2.8 4.5-6.7 4.5-11v-290.3c0-4.3-1.7-8.1-4.5-10.9-2.8-2.8-6.7-4.6-11-4.6zm93-7.7h290.3c6.4 0 12.2 2.6 16.4 6.8 4.2 4.2 6.8 10 6.8 16.4v290.3c0 6.4-2.6 12.2-6.8 16.4-4.2 4.2-10.1 6.8-16.4 6.8h-290.3c-6.4 0-12.3-2.6-16.5-6.8-4.2-4.2-6.8-10-6.8-16.4v-290.3c0-6.4 2.6-12.2 6.8-16.4h0.1c4.2-4.2 10-6.8 16.4-6.8zm290.3 7.7h-290.3c-4.3 0-8.2 1.7-11 4.5v0.1c-2.8 2.8-4.5 6.6-4.5 10.9v290.3c0 4.3 1.7 8.1 4.5 11 2.8 2.8 6.7 4.5 11 4.5h290.3c4.2 0 8.1-1.7 10.9-4.5 2.8-2.8 4.6-6.7 4.6-11v-290.3c0-4.3-1.8-8.1-4.6-10.9-2.8-2.8-6.7-4.6-10.9-4.6zm92.9-7.7h290.3c6.4 0 12.2 2.6 16.4 6.8 4.2 4.2 6.8 10 6.8 16.4v290.3c0 6.4-2.6 12.2-6.8 16.4-4.2 4.2-10 6.8-16.4 6.8h-290.3c-6.4 0-12.2-2.6-16.4-6.8-4.2-4.2-6.8-10-6.8-16.4v-290.3c0-6.4 2.6-12.2 6.8-16.4 4.2-4.2 10-6.8 16.4-6.8zm290.3 7.7h-290.3c-4.3 0-8.2 1.7-11 4.5v0.1c-2.8 2.8-4.5 6.6-4.5 10.9v290.3c0 4.3 1.7 8.1 4.5 11 2.8 2.8 6.7 4.5 11 4.5h290.3c4.3 0 8.1-1.7 10.9-4.5 2.8-2.8 4.6-6.7 4.6-11v-290.3c0-4.3-1.8-8.1-4.6-10.9-2.8-2.8-6.6-4.6-10.9-4.6zm92.9-7.7h290.3c6.4 0 12.2 2.6 16.4 6.8 4.2 4.2 6.9 10 6.9 16.4v290.3c0 6.4-2.7 12.2-6.9 16.4-4.2 4.2-10 6.8-16.4 6.8h-290.3c-6.4 0-12.2-2.6-16.4-6.8-4.2-4.2-6.8-10-6.8-16.4v-290.3c0-6.4 2.6-12.2 6.8-16.4 4.2-4.2 10-6.8 16.4-6.8zm290.3 7.7h-290.3c-4.3 0-8.1 1.7-10.9 4.5v0.1c-2.8 2.8-4.6 6.6-4.6 10.9v290.3c0 4.3 1.8 8.1 4.6 11 2.8 2.8 6.7 4.5 10.9 4.5h290.3c4.3 0 8.2-1.7 11-4.5 2.8-2.8 4.5-6.7 4.5-11v-290.3c0-4.3-1.7-8.1-4.5-10.9-2.8-2.8-6.7-4.6-11-4.6zm92.9-7.7h290.4c6.4 0 12.2 2.6 16.4 6.8 4.2 4.2 6.8 10 6.8 16.4v290.3c0 6.4-2.6 12.2-6.8 16.4h-0.1c-4.2 4.2-10 6.8-16.3 6.8h-290.4c-6.4 0-12.2-2.6-16.4-6.8-4.2-4.2-6.8-10-6.8-16.4v-290.3c0-6.4 2.6-12.2 6.8-16.4 4.3-4.2 10.1-6.8 16.4-6.8zm290.4 7.7h-290.4c-4.2 0-8.1 1.7-10.9 4.5v0.1c-2.8 2.8-4.5 6.6-4.5 10.9v290.3c0 4.3 1.7 8.1 4.5 11 2.8 2.8 6.7 4.5 10.9 4.5h290.4c4.2 0 8.1-1.7 10.9-4.5 2.8-2.8 4.5-6.7 4.5-11v-290.3c0-4.3-1.7-8.1-4.5-10.9-2.8-2.8-6.7-4.6-10.9-4.6zm92.9-7.7h290.3c6.4 0 12.2 2.6 16.4 6.8 4.2 4.2 6.8 10 6.8 16.4v290.3c0 6.4-2.6 12.2-6.8 16.4-4.2 4.2-10 6.8-16.4 6.8h-290.3c-6.4 0-12.2-2.6-16.4-6.8-4.3-4.2-6.9-10-6.9-16.4v-290.3c0-6.4 2.6-12.2 6.9-16.4 4.2-4.2 10-6.8 16.4-6.8zm290.3 7.7h-290.3c-4.3 0-8.2 1.7-11 4.5v0.1c-2.8 2.8-4.5 6.6-4.5 10.9v290.3c0 4.3 1.7 8.1 4.5 11 2.8 2.8 6.7 4.5 11 4.5h290.3c4.2 0 8.1-1.7 10.9-4.5 2.8-2.8 4.6-6.7 4.6-11v-290.3c0-4.3-1.8-8.1-4.6-10.9-2.8-2.8-6.7-4.6-10.9-4.6zm92.9-7.7h290.3c6.4 0 12.2 2.6 16.4 6.8 4.2 4.2 6.8 10 6.8 16.4v290.3c0 6.4-2.6 12.2-6.8 16.4-4.2 4.2-10 6.8-16.4 6.8h-290.3c-6.4 0-12.2-2.6-16.4-6.8-4.2-4.2-6.8-10-6.8-16.4v-290.3c0-6.4 2.6-12.2 6.8-16.4 4.2-4.2 10-6.8 16.4-6.8zm290.3 7.7h-290.3c-4.3 0-8.1 1.7-10.9 4.5l-0.1 0.1c-2.8 2.8-4.5 6.6-4.5 10.9v290.3c0 4.3 1.8 8.1 4.6 11 2.8 2.8 6.6 4.5 10.9 4.5h290.3c4.3 0 8.2-1.7 11-4.5 2.8-2.8 4.5-6.7 4.5-11v-290.3c0-4.3-1.7-8.1-4.6-10.9-2.8-2.8-6.6-4.6-10.9-4.6zm476.1-7.7h783.9c6.4 0 12.2 2.6 16.4 6.8 4.2 4.2 6.8 10 6.8 16.4v290.3c0 6.4-2.6 12.2-6.8 16.4-4.2 4.2-10 6.8-16.4 6.8h-783.9c-6.3 0-12.2-2.6-16.4-6.8-4.2-4.2-6.8-10-6.8-16.4v-290.3c0-6.4 2.6-12.2 6.8-16.4h0.1c4.2-4.2 10-6.8 16.3-6.8zm783.9 7.7h-783.9c-4.2 0-8.1 1.7-10.9 4.5v0.1c-2.8 2.8-4.5 6.6-4.5 10.9v290.3c0 4.3 1.7 8.1 4.5 11 2.8 2.8 6.7 4.5 10.9 4.5h783.9c4.3 0 8.2-1.7 11-4.5 2.8-2.8 4.5-6.7 4.5-11v-290.3c0-4.3-1.7-8.1-4.5-10.9-2.9-2.8-6.7-4.6-11-4.6zm-4696.9 375.5h290.4c6.4 0 12.2 2.6 16.4 6.8 4.2 4.2 6.8 10 6.8 16.4v290.3c0 6.4-2.6 12.2-6.8 16.4-4.2 4.3-10 6.9-16.4 6.9h-290.4c-6.3 0-12.1-2.6-16.3-6.9h-0.1c-4.2-4.2-6.8-10-6.8-16.4v-290.3c0-6.3 2.6-12.2 6.8-16.4h0.1c4.2-4.2 10-6.8 16.3-6.8zm290.4 7.7h-290.4c-4.2 0-8.1 1.8-10.9 4.6-2.8 2.8-4.5 6.7-4.5 10.9v290.3c0 4.3 1.7 8.2 4.5 11 2.8 2.8 6.7 4.5 10.9 4.5h290.4c4.2 0 8.1-1.7 10.9-4.5 2.8-2.8 4.6-6.7 4.6-11v-290.3c0-4.2-1.8-8.1-4.6-10.9-2.8-2.8-6.7-4.6-10.9-4.6zm92.9-7.7h290.3c6.4 0 12.2 2.6 16.4 6.8 4.2 4.2 6.8 10 6.8 16.4v290.3c0 6.4-2.6 12.2-6.8 16.4-4.2 4.3-10 6.9-16.4 6.9h-290.3c-6.4 0-12.2-2.6-16.4-6.9-4.2-4.2-6.8-10-6.8-16.4v-290.3c0-6.3 2.6-12.2 6.8-16.4 4.2-4.2 10-6.8 16.4-6.8zm290.3 7.7h-290.3c-4.3 0-8.2 1.8-11 4.6-2.8 2.8-4.5 6.7-4.5 10.9v290.3c0 4.3 1.7 8.2 4.5 11 2.8 2.8 6.7 4.5 11 4.5h290.3c4.3 0 8.1-1.7 10.9-4.5 2.8-2.8 4.6-6.7 4.6-11v-290.3c0-4.2-1.8-8.1-4.6-10.9-2.8-2.8-6.6-4.6-10.9-4.6zm92.9-7.7h290.3c6.4 0 12.2 2.6 16.4 6.8 4.2 4.2 6.9 10 6.9 16.4v290.3c0 6.4-2.7 12.2-6.9 16.4-4.2 4.3-10 6.9-16.4 6.9h-290.3c-6.4 0-12.2-2.6-16.4-6.9-4.2-4.2-6.8-10-6.8-16.4v-290.3c0-6.3 2.6-12.2 6.8-16.4 4.2-4.2 10-6.8 16.4-6.8zm290.3 7.7h-290.3c-4.3 0-8.1 1.8-10.9 4.6-2.8 2.8-4.6 6.7-4.6 10.9v290.3c0 4.3 1.8 8.2 4.6 11 2.8 2.8 6.6 4.5 10.9 4.5h290.3c4.3 0 8.2-1.7 11-4.5 2.8-2.8 4.5-6.7 4.5-11v-290.3c0-4.2-1.7-8.1-4.5-10.9-2.8-2.8-6.7-4.6-11-4.6zm92.9-7.7h290.4c6.4 0 12.2 2.6 16.4 6.8 4.2 4.2 6.8 10 6.8 16.4v290.3c0 6.4-2.6 12.2-6.8 16.4-4.2 4.3-10 6.9-16.4 6.9h-290.4c-6.3 0-12.1-2.6-16.4-6.9-4.2-4.2-6.8-10-6.8-16.4v-290.3c0-6.3 2.6-12.2 6.8-16.4 4.3-4.2 10.1-6.8 16.4-6.8zm290.4 7.7h-290.4c-4.2 0-8.1 1.8-10.9 4.6-2.8 2.8-4.5 6.7-4.5 10.9v290.3c0 4.3 1.7 8.2 4.5 11 2.8 2.8 6.7 4.5 10.9 4.5h290.4c4.2 0 8.1-1.7 10.9-4.5 2.8-2.8 4.5-6.7 4.5-11v-290.3c0-4.2-1.7-8.1-4.5-10.9-2.8-2.8-6.7-4.6-10.9-4.6zm92.9-7.7h290.3c6.4 0 12.2 2.6 16.4 6.8 4.2 4.2 6.8 10 6.8 16.4v290.3c0 6.4-2.6 12.2-6.8 16.4-4.2 4.3-10 6.9-16.4 6.9h-290.3c-6.4 0-12.2-2.6-16.4-6.9-4.3-4.2-6.9-10-6.9-16.4v-290.3c0-6.3 2.6-12.2 6.9-16.4 4.2-4.2 10-6.8 16.4-6.8zm290.3 7.7h-290.3c-4.3 0-8.2 1.8-11 4.6-2.8 2.8-4.5 6.7-4.5 10.9v290.3c0 4.3 1.7 8.2 4.5 11 2.8 2.8 6.7 4.5 11 4.5h290.3c4.2 0 8.1-1.7 10.9-4.5 2.8-2.8 4.6-6.7 4.6-11v-290.3c0-4.2-1.8-8.1-4.6-10.9-2.8-2.8-6.7-4.6-10.9-4.6zm92.9-7.7h290.3c6.4 0 12.2 2.6 16.4 6.8 4.2 4.2 6.8 10 6.8 16.4v290.3c0 6.4-2.6 12.2-6.8 16.4-4.2 4.3-10 6.9-16.4 6.9h-290.3c-6.4 0-12.2-2.6-16.4-6.9-4.2-4.2-6.8-10-6.8-16.4v-290.3c0-6.3 2.6-12.2 6.8-16.4 4.2-4.2 10-6.8 16.4-6.8zm290.3 7.7h-290.3c-4.3 0-8.1 1.8-10.9 4.6h-0.1c-2.8 2.8-4.5 6.7-4.5 10.9v290.3c0 4.3 1.7 8.2 4.5 11h0.1c2.8 2.8 6.6 4.5 10.9 4.5h290.3c4.3 0 8.1-1.7 10.9-4.5 2.9-2.8 4.6-6.7 4.6-11v-290.3c0-4.2-1.7-8.1-4.6-10.9-2.8-2.8-6.6-4.6-10.9-4.6zm92.9-7.7h290.3c6.4 0 12.2 2.6 16.4 6.8 4.2 4.2 6.9 10 6.9 16.4v290.3c0 6.4-2.7 12.2-6.9 16.4-4.2 4.3-10 6.9-16.4 6.9h-290.3c-6.3 0-12.2-2.6-16.4-6.9-4.2-4.2-6.8-10-6.8-16.4v-290.3c0-6.3 2.6-12.2 6.8-16.4 4.2-4.2 10.1-6.8 16.4-6.8zm290.3 7.7h-290.3c-4.2 0-8.1 1.8-10.9 4.6-2.8 2.8-4.6 6.7-4.6 10.9v290.3c0 4.3 1.8 8.2 4.6 11 2.8 2.8 6.7 4.5 10.9 4.5h290.3c4.3 0 8.2-1.7 11-4.5 2.8-2.8 4.5-6.7 4.5-11v-290.3c0-4.2-1.7-8.1-4.5-10.9-2.8-2.8-6.7-4.6-11-4.6zm92.9-7.7h290.4c6.4 0 12.2 2.6 16.4 6.8 4.2 4.2 6.8 10 6.8 16.4v290.3c0 6.4-2.6 12.2-6.8 16.4-4.2 4.3-10 6.9-16.4 6.9h-290.4c-6.3 0-12.1-2.6-16.3-6.9h-0.1c-4.2-4.2-6.8-10-6.8-16.4v-290.3c0-6.3 2.6-12.2 6.8-16.4h0.1c4.2-4.2 10-6.8 16.3-6.8zm290.4 7.7h-290.4c-4.2 0-8.1 1.8-10.9 4.6-2.8 2.8-4.5 6.7-4.5 10.9v290.3c0 4.3 1.7 8.2 4.5 11 2.8 2.8 6.7 4.5 10.9 4.5h290.4c4.2 0 8.1-1.7 10.9-4.5 2.8-2.8 4.6-6.7 4.6-11v-290.3c0-4.2-1.8-8.1-4.6-10.9-2.8-2.8-6.7-4.6-10.9-4.6zm92.9-7.7h290.3c6.4 0 12.2 2.6 16.4 6.8 4.2 4.2 6.8 10 6.8 16.4v290.3c0 6.4-2.6 12.2-6.8 16.4-4.2 4.3-10 6.9-16.4 6.9h-290.3c-6.4 0-12.2-2.6-16.4-6.9-4.2-4.2-6.8-10-6.8-16.4v-290.3c0-6.3 2.6-12.2 6.8-16.4 4.2-4.2 10-6.8 16.4-6.8zm290.3 7.7h-290.3c-4.3 0-8.2 1.8-11 4.6-2.8 2.8-4.5 6.7-4.5 10.9v290.3c0 4.3 1.7 8.2 4.5 11 2.8 2.8 6.7 4.5 11 4.5h290.3c4.3 0 8.1-1.7 10.9-4.5 2.8-2.8 4.6-6.7 4.6-11v-290.3c0-4.2-1.8-8.1-4.6-10.9-2.8-2.8-6.6-4.6-10.9-4.6zm92.9-7.7h290.3c6.4 0 12.2 2.6 16.4 6.8 4.2 4.2 6.9 10 6.9 16.4v290.3c0 6.4-2.7 12.2-6.9 16.4-4.2 4.3-10 6.9-16.4 6.9h-290.3c-6.4 0-12.2-2.6-16.4-6.9-4.2-4.2-6.8-10-6.8-16.4v-290.3c0-6.3 2.6-12.2 6.8-16.4 4.2-4.2 10-6.8 16.4-6.8zm290.3 7.7h-290.3c-4.3 0-8.1 1.8-10.9 4.6h-0.1c-2.7 2.8-4.5 6.7-4.5 10.9v290.3c0 4.3 1.8 8.2 4.5 11h0.1c2.8 2.8 6.6 4.5 10.9 4.5h290.3c4.3 0 8.1-1.7 11-4.5 2.8-2.8 4.5-6.7 4.5-11v-290.3c0-4.2-1.7-8.1-4.5-10.9-2.9-2.8-6.7-4.6-11-4.6zm-4505.8 375.5h290.3c6.4 0 12.2 2.6 16.4 6.8v0.1c4.2 4.2 6.8 10 6.8 16.4v290.3c0 6.4-2.6 12.2-6.8 16.4-4.2 4.2-10 6.8-16.4 6.8h-192.2-98.1-192.2c-6.4 0-12.2-2.6-16.4-6.8-4.2-4.3-6.8-10.1-6.8-16.4v-290.3c0-6.4 2.6-12.2 6.8-16.5 4.2-4.2 10-6.8 16.4-6.8zm98.1 7.8h-290.3c-4.2 0-8.1 1.7-10.9 4.5-2.8 2.8-4.6 6.7-4.6 11v290.3c0 4.2 1.8 8.1 4.6 10.9 2.8 2.8 6.6 4.6 10.9 4.6h192.2 98.1 192.2c4.3 0 8.2-1.8 11-4.6 2.8-2.8 4.5-6.7 4.5-10.9v-290.3c0-4.3-1.7-8.2-4.5-11-2.8-2.8-6.7-4.5-11-4.5zm285.1-7.8h290.3c6.4 0 12.2 2.6 16.4 6.8l0.1 0.1c4.2 4.2 6.8 10 6.8 16.4v290.3c0 6.4-2.6 12.2-6.8 16.4-4.3 4.2-10.1 6.8-16.5 6.8h-290.3c-6.3 0-12.2-2.6-16.4-6.8-4.2-4.3-6.8-10.1-6.8-16.4v-290.3c0-6.4 2.6-12.2 6.8-16.5 4.2-4.2 10-6.8 16.4-6.8zm290.3 7.8h-290.3c-4.2 0-8.1 1.7-10.9 4.5-2.8 2.8-4.6 6.7-4.6 11v290.3c0 4.2 1.8 8.1 4.6 10.9 2.8 2.8 6.7 4.6 10.9 4.6h290.3c4.3 0 8.2-1.8 11-4.6 2.8-2.8 4.5-6.7 4.5-10.9v-290.3c0-4.3-1.7-8.2-4.5-11-2.8-2.8-6.7-4.5-11-4.5zm92.9-7.8h290.4c6.4 0 12.2 2.6 16.4 6.8v0.1c4.2 4.2 6.8 10 6.8 16.4v290.3c0 6.4-2.6 12.2-6.8 16.4-4.2 4.2-10 6.8-16.4 6.8h-290.4c-6.3 0-12.1-2.6-16.3-6.8h-0.1c-4.2-4.3-6.8-10.1-6.8-16.4v-290.3c0-6.4 2.6-12.2 6.8-16.5 4.2-4.2 10.1-6.8 16.4-6.8zm290.4 7.8h-290.4c-4.2 0-8.1 1.7-10.9 4.5-2.8 2.8-4.5 6.7-4.5 11v290.3c0 4.2 1.7 8.1 4.5 10.9 2.8 2.8 6.7 4.6 10.9 4.6h290.4c4.2 0 8.1-1.8 10.9-4.6 2.8-2.8 4.6-6.7 4.6-10.9v-290.3c0-4.3-1.8-8.2-4.6-11-2.8-2.8-6.7-4.5-10.9-4.5zm92.9-7.8h290.3c6.4 0 12.2 2.6 16.4 6.8v0.1c4.2 4.2 6.8 10 6.8 16.4v290.3c0 6.4-2.6 12.2-6.8 16.4-4.2 4.2-10 6.8-16.4 6.8h-290.3c-6.4 0-12.2-2.6-16.4-6.8-4.2-4.3-6.8-10.1-6.8-16.4v-290.3c0-6.4 2.6-12.2 6.8-16.5 4.2-4.2 10-6.8 16.4-6.8zm290.3 7.8h-290.3c-4.3 0-8.2 1.7-11 4.5-2.8 2.8-4.5 6.7-4.5 11v290.3c0 4.2 1.7 8.1 4.5 10.9 2.8 2.8 6.7 4.6 11 4.6h290.3c4.3 0 8.1-1.8 10.9-4.6 2.8-2.8 4.6-6.7 4.6-10.9v-290.3c0-4.3-1.8-8.2-4.6-11-2.8-2.8-6.6-4.5-10.9-4.5zm2009-7.8h290.4c6.3 0 12.1 2.6 16.4 6.8v0.1c4.2 4.2 6.8 10 6.8 16.4v290.3c0 6.4-2.6 12.2-6.8 16.4-4.2 4.2-10 6.8-16.4 6.8h-290.4c-6.3 0-12.1-2.6-16.3-6.8h-0.1c-4.2-4.3-6.8-10.1-6.8-16.4v-290.3c0-6.4 2.6-12.2 6.8-16.5 4.2-4.2 10.1-6.8 16.4-6.8zm290.4 7.8h-290.4c-4.2 0-8.1 1.7-10.9 4.5-2.8 2.8-4.5 6.7-4.5 11v290.3c0 4.2 1.7 8.1 4.5 10.9 2.8 2.8 6.7 4.6 10.9 4.6h290.4c4.2 0 8.1-1.8 10.9-4.6 2.8-2.8 4.6-6.7 4.6-10.9v-290.3c0-4.3-1.8-8.2-4.6-11-2.8-2.8-6.7-4.5-10.9-4.5zm92.9-7.8h290.3c6.4 0 12.2 2.6 16.4 6.8v0.1c4.2 4.2 6.8 10 6.8 16.4v290.3c0 6.4-2.6 12.2-6.8 16.4-4.2 4.2-10 6.8-16.4 6.8h-290.3c-6.4 0-12.2-2.6-16.4-6.8-4.2-4.3-6.8-10.1-6.8-16.4v-290.3c0-6.4 2.6-12.2 6.8-16.5 4.2-4.2 10-6.8 16.4-6.8zm290.3 7.8h-290.3c-4.3 0-8.2 1.7-11 4.5-2.8 2.8-4.5 6.7-4.5 11v290.3c0 4.2 1.7 8.1 4.5 10.9 2.8 2.8 6.7 4.6 11 4.6h290.3c4.3 0 8.1-1.8 10.9-4.6 2.8-2.8 4.6-6.7 4.6-10.9v-290.3c0-4.3-1.8-8.2-4.6-11-2.8-2.8-6.6-4.5-10.9-4.5zm-4314.8-1157.5h481.9c6.4 0 12.2 2.7 16.4 6.9 4.2 4.2 6.9 10 6.9 16.4v290.3c0 6.4-2.7 12.2-6.9 16.4-4.2 4.2-10 6.8-16.4 6.8h-481.9c-6.4 0-12.2-2.6-16.4-6.8-4.2-4.2-6.8-10-6.8-16.4v-290.3c0-6.4 2.6-12.2 6.8-16.4 4.2-4.3 10-6.9 16.4-6.9zm481.9 7.8h-481.9c-4.3 0-8.1 1.7-10.9 4.5-2.8 2.8-4.6 6.7-4.6 11v290.3c0 4.2 1.8 8.1 4.6 10.9 2.8 2.8 6.6 4.6 10.9 4.6h481.9c4.3 0 8.2-1.8 11-4.6 2.8-2.8 4.5-6.7 4.5-10.9v-290.3c0-4.3-1.7-8.2-4.5-11-2.8-2.8-6.7-4.5-11-4.5zm4006.5 375.5h290.3c6.4 0 12.2 2.6 16.4 6.8 4.2 4.2 6.9 10 6.9 16.4v290.3c0 6.4-2.7 12.2-6.9 16.4-4.2 4.2-10 6.8-16.4 6.8h-290.3c-6.4 0-12.2-2.6-16.4-6.8-4.2-4.2-6.8-10-6.8-16.4v-290.3c0-6.4 2.6-12.2 6.8-16.4 4.2-4.2 10-6.8 16.4-6.8zm290.3 7.7h-290.3c-4.3 0-8.1 1.7-10.9 4.5v0.1c-2.8 2.8-4.6 6.6-4.6 10.9v290.3c0 4.3 1.8 8.1 4.6 11 2.8 2.8 6.7 4.5 10.9 4.5h290.3c4.3 0 8.2-1.7 11-4.5 2.8-2.8 4.5-6.7 4.5-11v-290.3c0-4.3-1.7-8.1-4.5-10.9-2.8-2.8-6.7-4.6-11-4.6zm-180 758.7h290.4c6.3 0 12.1 2.6 16.4 6.8v0.1c4.2 4.2 6.8 10 6.8 16.4v290.3c0 6.4-2.6 12.2-6.8 16.4-4.2 4.2-10 6.8-16.4 6.8h-192.2-98.2-192.2c-6.3 0-12.1-2.6-16.3-6.8h-0.1c-4.2-4.3-6.8-10.1-6.8-16.4v-290.3c0-6.4 2.6-12.2 6.8-16.5 4.2-4.2 10-6.8 16.4-6.8zm98.2 7.8h-290.3c-4.3 0-8.2 1.7-11 4.5-2.8 2.8-4.5 6.7-4.5 11v290.3c0 4.2 1.7 8.1 4.5 10.9 2.8 2.8 6.7 4.6 11 4.6h192.1 98.2 192.2c4.2 0 8.1-1.8 10.9-4.6 2.8-2.8 4.6-6.7 4.6-10.9v-290.3c0-4.3-1.8-8.2-4.6-11-2.8-2.8-6.7-4.5-10.9-4.5zm-4696.9-391h865.8c6.4 0 12.2 2.6 16.4 6.8 4.2 4.2 6.8 10 6.8 16.4v290.3c0 6.4-2.6 12.2-6.8 16.4-4.2 4.3-10 6.9-16.4 6.9h-865.8c-6.4 0-12.2-2.6-16.4-6.9-4.2-4.2-6.8-10-6.8-16.4v-290.3c0-6.3 2.6-12.2 6.8-16.4 4.2-4.2 10-6.8 16.4-6.8zm865.8 7.7h-865.8c-4.2 0-8.1 1.8-10.9 4.6-2.8 2.8-4.6 6.7-4.6 10.9v290.3c0 4.3 1.8 8.2 4.6 11 2.8 2.8 6.7 4.5 10.9 4.5h865.8c4.2 0 8.1-1.7 10.9-4.5 2.8-2.8 4.5-6.7 4.5-11v-290.3c0-4.2-1.7-8.1-4.5-10.9-2.8-2.8-6.7-4.6-10.9-4.6zm-145.8-555.5c9.4 0 18-2.1 25.4-6l8.8 9.8 12.2-10.3-8.3-9.4c8.5-9.2 13.5-21.7 13.5-36.3 0-30.1-21.5-52.1-51.6-52.1-30.2 0-51.5 22-51.5 52.1 0 30.1 21.3 52.2 51.5 52.2zm0-15.7c-20.4 0-33.4-15.7-33.4-36.5 0-20.8 13-36.4 33.4-36.4 20.3 0 33.4 15.6 33.4 36.4 0 9-2.4 17-6.8 23.2l-12.5-14.2-12.4 10.2 12.5 14.3c-4.2 1.9-8.9 3-14.2 3zm421.7 15.9l28.8-100.9h-19.8l-19.6 77.6-20.9-77.6h-14.1l-20.8 77.6-19.7-77.6h-19.7l28.8 100.9h18.9l19.7-74.6 19.5 74.6zm379.3 0v-15.6h-51.4v-28.1h50.4v-15.6h-50.4v-26h51.4v-15.6h-69.1v100.9zm392.3 0l-24.8-39.7c12.3-1.9 24.1-11.8 24.1-29.6 0-18.8-13.2-31.6-33.1-31.6h-44.4v100.9h17.7v-37.7h17.7l22.3 37.7zm-36.2-53.3h-24.3v-32h24.3c10 0 17.3 6.2 17.3 15.8 0 9.9-7.3 16.2-17.3 16.2zm384.6 53.3v-85.3h30.5v-15.6h-78.7v15.6h30.5v85.3zm383.3 0v-41.9l39-59h-20.2l-27.7 43.1-27.7-43.1h-20.3l39.2 59v41.9zm374.3 0.9c29.4 0 43.7-16.8 43.7-41.8v-60.9h-18v60.5c0 16-8.9 26.4-25.7 26.4-16.8 0-25.7-10.4-25.7-26.4v-60.5h-18v60.9c0 25 14.5 41.8 43.7 41.8zm392.1-0.9v-100.9h-17.7v100.9zm374.4 1.7c30.1 0 51.6-22.1 51.6-52.2 0-30.1-21.5-52.1-51.6-52.1-30.3 0-51.6 22-51.6 52.1 0 30.1 21.3 52.2 51.6 52.2zm0-15.7c-20.4 0-33.4-15.8-33.4-36.5 0-20.8 13-36.4 33.4-36.4 20.3 0 33.4 15.6 33.4 36.4 0 20.7-13.1 36.5-33.4 36.5zm362.3 14v-37.8h26.7c21.1 0 32.9-14.4 32.9-31.5 0-17.2-11.7-31.6-32.9-31.6h-44.4v100.9zm24.3-53.4h-24.3v-31.9h24.3c10 0 17.1 6.3 17.1 16 0 9.5-7.1 15.9-17.1 15.9zm395.2 68.6v-10.9h-18.9v-109.5h18.9v-10.9h-30.7v131.3zm379.3 0v-131.3h-30.7v10.9h18.9v109.5h-18.9v10.9zm479.6-12.2h11.8l-35.8-106.9h-11.8zm-4574.6 380.2l-39.6-100.9h-22.1l-39.6 100.9h20.1l7.4-19.5h46.2l7.5 19.5zm-32.6-35.1h-36.2l18.1-48.1zm366.1 36.8c27.1 0 39.1-14.5 39.1-31.3 0-37.5-58.7-25.9-58.7-44.7 0-7.5 6.6-12.6 16.9-12.6 10.6 0 21.3 3.6 29.4 11.6l9.9-13.1c-9.2-9.1-22-14.2-37.6-14.2-22.3 0-36.8 12.8-36.8 29.6 0 37.1 58.7 23.9 58.7 45.1 0 6.8-5.6 13.9-20.1 13.9-14.1 0-25.1-6.7-31.9-14.1l-10 13.8c9.1 9.4 22.5 16 41.1 16zm374.7-1.7c31.5 0 52.6-20.7 52.6-50.5 0-29.5-21.1-50.4-52.7-50.4h-37.5v100.9zm-0.2-15.6h-19.8v-69.7h20c22.4 0 34.4 15.4 34.4 34.8 0 19.2-12.7 34.9-34.6 34.9zm374 15.6v-43.7h50.4v-15.6h-50.4v-26h51.4v-15.6h-69.1v100.9zm405.9 1.8c17.4 0 31.6-7.4 41.4-18.5v-37.6h-47.8v15.6h30.3v15.5c-4.6 4.4-13.7 9.1-23.9 9.1-20 0-34.8-15.4-34.8-36.4 0-21.4 14.8-36.5 34.8-36.5 11.2 0 20.7 5.9 26.1 13.5l14.4-8.3c-8-11.5-20.9-20.9-40.5-20.9-29.4 0-53 20.4-53 52.2 0 31.6 23.6 52.3 53 52.3zm421.4-1.8v-100.9h-17.7v41.1h-52.5v-41.1h-17.7v100.9h17.7v-44.2h52.5v44.2zm335.7 0.9c19.5 0 34-10.9 34-33.9v-68.8h-17.6v68.7c0 10.8-7 18.3-17.7 18.3-7.7 0-13.3-4-17.3-8.5l-8.3 13.4c7.3 7.6 16.5 10.8 26.9 10.8zm427.9-0.9l-44.1-53.4 41-47.5h-22l-39.4 48v-48h-17.7v100.9h17.7v-32.2l8.9-10.5 33.7 42.7zm373.2 0v-15.6h-44.5v-85.3h-17.7v100.9zm351.8-76.4c5.8 0 10.6-4.8 10.6-10.6 0-5.7-4.8-10.4-10.6-10.4-5.7 0-10.6 4.7-10.6 10.4 0 5.8 4.9 10.6 10.6 10.6zm11.4 47c0-8.7-5.5-13.7-11.7-13.7-5.7 0-10.3 4.7-10.3 10.3 0 5.6 4 9.5 8.9 9.5 1.1 0 2.3-0.2 2.6-0.3-0.9 5.1-6 11.3-10.9 14.2l7.3 5.9c8.3-5.9 14.1-15.4 14.1-25.9zm361.2-15c0 8.8 5.5 13.8 11.7 13.8 5.7 0 10.3-4.7 10.3-10.5 0-5.6-4-9.5-8.9-9.5-1.1 0-2.3 0.3-2.6 0.4 0.9-5.1 6-11.3 10.9-14.2l-7.3-5.9c-8.3 5.9-14.1 15.5-14.1 25.9zm-4525 407.3c11.5 0 17.8-5.8 17.8-13.4 0-17-25.9-11.4-25.9-18.9 0-3 3.1-5.3 7.9-5.3 5.4 0 10.1 2.3 12.7 5.1l3.9-6.5c-3.8-3.4-9.3-6-16.6-6-10.8 0-16.8 6-16.8 13 0 16.5 25.9 10.4 25.9 18.9 0 3.3-2.9 5.6-8.5 5.6-5.5 0-11.5-2.8-14.5-5.9l-4.3 6.6c4.5 4.4 11 6.8 18.4 6.8zm65.5-1.1v-30.3c0-8.8-4.6-13.6-13.9-13.6-6.7 0-12.2 3.5-15 6.8v-22h-9.4v59.1h9.4v-30c2.1-2.8 6.2-5.6 11-5.6 5.2 0 8.6 1.9 8.6 8.7v26.9zm16.7-48.1c3.2 0 5.8-2.5 5.8-5.7 0-3.2-2.6-5.8-5.8-5.8-3.2 0-5.7 2.6-5.7 5.8 0 3.2 2.5 5.7 5.7 5.7zm4.6 48.1v-42.8h-9.3v42.8zm23.7 0v-34.8h8.7v-8h-8.7v-2.4c0-4.8 2.2-7.2 6-7.2 2 0 3.6 0.7 4.8 1.9l3.7-5.8c-2.6-2.8-6.4-3.7-10.3-3.7-8.1 0-13.5 5.5-13.5 14.8v2.4h-7.1v8h7.1v34.8zm28.7 1.1c4.3 0 7-1.3 8.7-2.8l-2.2-7.1c-0.7 0.8-2.3 1.6-4.1 1.6-2.6 0-4-2.2-4-5.1v-22.5h8.6v-8h-8.6v-11.7h-9.4v11.7h-7.1v8h7.1v24.8c0 7.2 3.8 11.1 11 11.1zm904.8 20.3v-15.6h-52.8l51.8-71.1v-14.2h-74.6v15.6h51.4l-51.4 70.9v14.4zm394.9 0l-37.8-51.9 35.5-49h-21.3l-25.9 36.9-26-36.9h-21.2l35.4 49.2-37.6 51.7h21.2l28.2-39.5 28.3 39.5zm340 1.7c20.3 0 32.8-10.7 40.5-22.8l-15.1-7.6c-4.8 8.4-14.7 14.7-25.4 14.7-20 0-34.8-15.4-34.8-36.4 0-21.3 14.8-36.5 34.8-36.5 10.7 0 20.6 6.2 25.4 14.7l15-7.9c-7.4-12.1-20.1-22.5-40.4-22.5-29.8 0-52.9 21-52.9 52.2 0 31 23.1 52.1 52.9 52.1zm393.7-1.7l39.6-100.9h-20.1l-30.5 81.5-30.6-81.5h-20.1l39.7 100.9zm374.6-0.1c19.1 0 29.4-11.7 29.4-27.4 0-12.3-8.6-23-19.5-24.7 9.3-1.9 17.5-10.6 17.5-23.1 0-14.2-10.1-25.7-28.7-25.7h-49.6v100.9zm-4.9-59.3h-28.4v-26h28.4c9 0 14.1 5.6 14.1 13 0 7.7-5.1 13-14.1 13zm0.8 43.7h-29.2v-28.2h29.2c10 0 15.3 6.6 15.3 14.1 0 8.8-5.8 14.1-15.3 14.1zm422.6 15.7v-100.9h-17.7v69.9l-51.5-69.9h-18.2v100.9h17.7v-72.1l52.6 72.1zm392.2 0v-100.9h-25l-27.3 69.3-27.6-69.3h-24.9v100.9h17.7v-77.9l31 77.9h7.5l30.9-77.9v77.9zm341.8-56.5c0-8.8-5.5-13.7-11.7-13.7-5.7 0-10.3 4.7-10.3 10.2 0 5.6 4 9.7 9 9.7 1 0 2.2-0.3 2.5-0.4-0.9 5.1-6 11.3-10.8 14.2l7.2 5.9c8.3-5.9 14.1-15.4 14.1-25.9zm372.2 16.7c5.8 0 10.6-5 10.6-10.8 0-5.6-4.8-10.4-10.6-10.4-5.7 0-10.5 4.8-10.5 10.4 0 5.8 4.8 10.8 10.5 10.8zm371.2 42.8l35.9-106.9h-11.8l-35.9 106.9zm-4246.7-77v56.2h-8.9v-56.2l-10.7 10.7-6.3-6.3 15.1-15.2 6.3-6.3 6.4 6.3 15.1 15.2-6.3 6.3zm256.5-1075.7v-100.9h-15.4l-29.1 29.4 10.3 10.7 16.5-17.2v78zm398.2 0.8v-15.6h-44.6c26.9-20.4 44-37.1 44-55.8 0-20.1-16.9-31-36.4-31-14.3 0-28.5 5.3-37.4 16.2l10.3 11.5c6.5-7.3 15.4-12 27.2-12 9.2 0 18.5 4.7 18.5 15.3 0 14.7-15.5 27.7-54.6 57.3v14.1zm342.4 1c23.5 0 38.1-12.2 38.1-29.5 0-15.6-13.7-23.4-23.4-24.5 10.3-1.6 21.8-9.5 21.8-23.1 0-16.8-14.5-27.1-36.3-27.1-16.8 0-29 6.7-36.9 15.9l9.1 11c7.2-7.4 15.7-11.2 26.1-11.2 11.2 0 20.4 4.9 20.4 14.1 0 9.2-8.9 13.3-20.8 13.3-4 0-9.9 0-11.5-0.1v16c1.5-0.2 7.2-0.3 11.5-0.3 14.5 0 22.3 4.4 22.3 14.4 0 9.2-7.7 15.4-21 15.4-10.7 0-21.3-4.7-27.8-12.3l-9.7 11.7c7 9.1 20.3 16.3 38.1 16.3zm411.5-1.8v-22.8h13.5v-15.6h-13.5v-62.5h-24.3l-41.4 63.8v14.3h48v22.8zm-17.6-38.4h-30.7l30.7-46.6zm375.5 39.3c22.6 0 38.6-13.3 38.6-34.1 0-20.8-15.3-32.6-32.4-32.6-9.6 0-17.8 4-22.8 8.7v-29.1h48.4v-15.5h-66.1v56.2l12.6 3.6c6.5-6 13.6-8.6 22-8.6 12.4 0 20.3 7.1 20.3 17.9 0 9.9-7.9 17.8-20.7 17.8-11.2 0-20.4-4.2-27.1-12.1l-10.1 12.3c8.2 9.5 20.1 15.5 37.3 15.5zm386.1 0.8c22.5 0 37.2-15.3 37.2-33.8 0-21.4-15.8-32.6-33.9-32.6-11.8 0-22.4 7.4-27.1 14.2 0-1 0-2 0-2.9 0-17.7 9.7-33.4 26.6-33.4 9.6 0 15.5 3.4 20.8 8.8l8.1-13.3c-6.8-6.8-16.5-11.2-28.9-11.2-29.1 0-44.4 23-44.4 52.2 0 28 11.9 52 41.6 52zm-1.1-15.7c-15.4 0-21.5-12.8-22.4-23.7 5-7.2 13.5-11.7 22.1-11.7 10.9 0 20.6 5.5 20.6 17.9 0 8-7 17.5-20.3 17.5zm379.5 14l39-88.6v-12.2h-72.8v15.5h52.4l-38.2 85.3zm385.9 1.7c20.6 0 38.7-9.7 38.7-27.8 0-12.7-10.4-22-22.6-26 11.3-3.7 21-11.2 21-23.9 0-18.8-19.2-26.5-37.1-26.5-17.8 0-37 7.7-37 26.5 0 12.7 9.7 20.2 21 23.9-12.3 4-22.7 13.3-22.7 26 0 18.1 18 27.8 38.7 27.8zm0-61c-6-1-19-4.6-19-14 0-8.6 8.1-13.5 19-13.5 10.9 0 19.1 4.9 19.1 13.5 0 9.4-12.9 13-19.1 14zm0 45.3c-11.5 0-20.7-5.5-20.7-14.4 0-10.4 14.4-15 20.7-15.9 6.2 0.9 20.7 5.5 20.7 15.9 0 8.9-9.5 14.4-20.7 14.4zm378.2 15.7c29.2 0 44.5-23 44.5-52.2 0-28-12-52-41.6-52-22.6 0-37.2 15.1-37.2 33.9 0 21.4 15.5 32.5 33.7 32.5 11.9 0 22.5-7.3 27.1-14.1 0.1 0.9 0.1 2 0.1 2.9 0 16.5-8.3 33.3-26.6 33.3-9.7 0-15.4-3.4-20.7-9l-8.3 13.5c6.8 6.6 16.4 11.2 29 11.2zm4.2-52.9c-11 0-20.7-5.6-20.7-18 0-8.2 7-17.6 20.3-17.6 15.5 0 21.4 12.7 22.5 23.6-5.1 7.3-13.5 12-22.1 12zm384.2 52.9c28.2 0 40.2-26.9 40.2-52.2 0-25.4-12-52-40.2-52-28.5 0-40.4 26.6-40.4 52 0 25.3 11.9 52.2 40.4 52.2zm0-15.7c-16.5 0-22.4-17.3-22.4-36.5 0-19.3 5.9-36.3 22.4-36.3 16.4 0 22.2 17 22.2 36.3 0 19.2-5.9 36.5-22.2 36.5zm401.3-29.6v-13.6h-36.3v13.6zm398.6-16.2v-10.1h-67.1v10.1zm0 28.9v-10.3h-67.2v10.3zm-4614.1-8.6l-21.2-21.8h-15.1l25 21.8zm-100.3-111.3c-0.9 9.6-2.6 17.9-6.9 17.9-6.5 0-3.6-17.8-16-17.8-10.2 0-13 11.7-14 23.4l7.2 0.8c0.8-9.5 2.5-17.8 6.8-17.8 6.6 0 3.7 17.7 16 17.7 10.3 0 12.9-11.8 14-23.5zm358.3 24.2l1.8-44.7h-12.4l1.8 44.7zm-4.3 20.8c3.6 0 6.6-3.1 6.6-6.8 0-3.6-3-6.7-6.6-6.7-3.7 0-6.8 3.1-6.8 6.7 0 3.7 3.1 6.8 6.8 6.8zm396.7 1.5c7.1 0 14.1-2.2 20.1-6.1l-1.9-2.8c-5.2 3.4-11.1 5.4-17.7 5.4-16 0-27.5-11.8-27.5-27.1 0-18 15.9-34.4 34.4-34.4 16.4 0 27 11.1 27 26.5 0 12.1-6 16.4-9.7 16.4-2.3 0-4-1.5-4-4.6 0-0.5 0.1-1.6 0.2-2.1l5.2-24.7h-9.1l-1 5.5c-2.1-4-6.2-7.1-12.3-7.1-11.4 0-22.3 10.9-22.3 24 0 9.4 5.7 16.1 15 16.1 5.6 0 11.1-3.3 14.5-8.1l0.1 0.6c0.5 3.9 3.5 7.5 9.1 7.5 8.3 0 18.1-7.8 18.1-23.4 0-16.6-12-30.1-30.5-30.1-20.1 0-38.4 17.3-38.4 38.1 0 17.1 13.1 30.4 30.7 30.4zm-0.3-22.4c-5.5 0-8.8-3.8-8.8-9.4 0-8.1 6.3-15.9 14.9-15.9 4.9 0 7.7 3.3 8.7 5.8l-2.5 12.2c-2.4 3.5-6.6 7.3-12.3 7.3zm381 20.4l5.7-16.9h10.3l2.1-6.7h-10.2l5.9-17.3h10l2-6.7h-9.9l5.7-16.9h-7.7l-5.6 16.9h-9.8l5.6-16.9h-7.7l-5.6 16.9h-10.1l-2 6.7h9.8l-5.8 17.3h-9.9l-2.1 6.7h9.8l-5.7 16.9h7.7l5.6-16.9h9.9l-5.7 16.9zm0.1-23.6h-9.7l5.8-17.3h9.8zm384.1 33.3h7.7v-8.7c14.5-1.3 21-10 21-19.8 0-13-10.9-16.8-21-19.4v-16.7c4.7 0.9 9.4 3.2 13.1 6.8l6.3-8.4c-5-4.8-11.6-7.9-19.4-8.8v-9h-7.7v8.9c-12.5 1.1-20.5 8.9-20.5 18.8 0 12.6 10.5 16.1 20.5 18.7v18.7c-7-1-12.6-4.7-16.2-8.7l-6.4 8.8c5.1 5.4 12.6 9.3 22.6 10.1zm17.1-27.5c0 3.8-2.7 7.8-9.4 8.7v-16.8c5.3 1.6 9.4 3.8 9.4 8.1zm-26-29.7c0-4.2 3.4-7.2 8.9-7.9v15.2c-5.2-1.6-8.9-3.5-8.9-7.3zm378.9 11.2c9.6 0 15.9-7 15.9-16 0-9.1-6.3-16.1-15.9-16.1-9.5 0-15.9 7-15.9 16.1 0 9 6.4 16 15.9 16zm0.2 33.4l41-64.5h-6.6l-40.8 64.5zm34.2 1.2c9.5 0 15.9-7 15.9-16 0-9.1-6.4-16-15.9-16-9.5 0-15.9 6.9-15.9 16 0 9 6.4 16 15.9 16zm-34.4-41.1c-4.9 0-8.4-3.9-8.4-9.5 0-5.7 3.5-9.7 8.4-9.7 5 0 8.5 4 8.5 9.7 0 5.6-3.5 9.5-8.5 9.5zm34.4 34.6c-5 0-8.5-3.9-8.5-9.5 0-5.7 3.5-9.6 8.5-9.6 5 0 8.6 3.9 8.6 9.6 0 5.6-3.6 9.5-8.6 9.5zm380.4-19.2l-15.3-32.4h-7.4l-15.5 32.4h7.8l11.4-25.3 11.4 25.3zm403.8 27.3c-4.6-4.5-8.7-8.6-12.5-12.7 3.7-5.1 6.6-10.8 8.8-16.1l-8.1-3.7c-1.2 3.7-3.3 8.9-6.4 13.5-2.1-2.3-4.2-4.8-6.3-7.4-1.8-2.2-4.1-5-6.3-8.1 8-3.9 15.9-8.1 15.9-17.9 0-8.4-7.1-13.1-15.7-13.1-10 0-17.4 6.5-17.4 15.1 0 4.5 1.9 9.4 4.5 14.3-7.3 3.7-13.9 8.9-13.9 18.9 0 12.1 9.2 18.3 20.6 18.3 7.2 0 13.1-2.7 17.9-6.7 2.1 2.2 4.1 4.1 5.6 5.6zm-35.4-7c-6 0-11.3-4.1-11.3-11.1 0-5.4 3.1-8.8 7.3-11.6 2.2 3.2 4.7 6.3 7.1 9.2 1.6 2.1 4.6 5.5 7.9 9-3.3 2.7-6.9 4.5-11 4.5zm-2.4-43.1c0-4.7 3.4-8 7.6-8 3.7 0 6.5 2.3 6.5 6.3 0 5.4-4.9 8.5-11 11.4-1.9-3.4-3.1-6.8-3.1-9.7zm380.1 18.6l-0.5-10.8 9 5.8 2.7-4.7-9.6-4.9 9.6-4.9-2.7-4.7-9 5.9 0.5-10.8h-5.3l0.5 10.8-9-5.9-2.7 4.7 9.5 4.9-9.5 4.9 2.7 4.7 9-5.8-0.5 10.8zm387.5 37.2c-6.4-11.9-9.8-22.8-9.8-37.9 0-15.3 3.4-26 9.8-38l-6.2-4.8c-9.1 11.2-14.6 27.2-14.6 42.8 0 15.6 5.5 31.6 14.6 42.8zm363.5 0c6.3-11.9 9.8-22.9 9.8-38 0-15.3-3.5-26-9.8-38l6.3-4.8c9 11.2 14.4 27.2 14.4 42.8 0 15.6-5.4 31.7-14.4 42.8zm0 0c6.3-11.9 9.7-22.8 9.7-38 0-15.2-3.4-26-9.7-38l6.2-4.7c9 11.1 14.5 27.2 14.5 42.7 0 15.6-5.5 31.7-14.5 42.8zm444.1-34.4v-7h-54.7v7zm369.4-0.6v-6.5h-17.7v-19.5h-7.1v19.5h-17.7v6.5h17.7v20.1h7.1v-20.1zm557 414.5v-68.4h-6.9v68.4zm-772.6 745.5l8.5-2.9c-1.3-1-2.1-2.8-2.1-4.3 0-8.7 17.1-9.8 17.1-24.1 0-8.7-7.4-15.2-19.5-15.2-8.6 0-16 3.5-20.9 9.5l6.5 7.3c3.2-4.2 7.4-6.8 13.4-6.8 6.1 0 9.1 3.2 9.1 7 0 8.2-15.5 9.4-15.5 21.2 0 3.2 1.1 6.1 3.4 8.3zm3.4 20c3.7 0 6.7-3.1 6.7-6.8 0-3.6-3-6.7-6.7-6.7-3.6 0-6.7 3.1-6.7 6.7 0 3.7 3.1 6.8 6.7 6.8zm-362.1-29.6v-7.3l-42.5-20.1v7.8l35 16.1-35 15.7v7.9zm-383.2 20v-7.8l-34.9-15.8 34.9-16.1v-7.7l-42.6 20v7.4zm442.7-417.8c3.6 0 6.7-3.1 6.7-6.6 0-3.7-3.1-6.8-6.7-6.8-3.7 0-6.7 3.1-6.7 6.8 0 3.5 3 6.6 6.7 6.6zm0 35.1c3.6 0 6.7-3.2 6.7-6.9 0-3.6-3.1-6.7-6.7-6.7-3.7 0-6.7 3.1-6.7 6.7 0 3.7 3 6.9 6.7 6.9zm367.3-36.7c0 5.6 3.6 8.8 7.5 8.8 3.5 0 6.5-3 6.5-6.6 0-3.6-2.5-6.1-5.7-6.1-0.6 0-1.4 0.2-1.7 0.2 0.7-3.2 3.9-7.2 6.9-9l-4.5-3.8c-5.2 3.8-9 9.8-9 16.5zm17.8 0c0 5.6 3.5 8.8 7.4 8.8 3.6 0 6.6-3 6.6-6.6 0-3.6-2.5-6.1-5.8-6.1-0.6 0-1.3 0.2-1.6 0.2 0.6-3.2 3.8-7.2 6.9-9l-4.5-3.8c-5.3 3.8-9 9.8-9 16.5z"/></svg>